<svg width="370" height="398" viewBox="0 0 370 398" fill="none" xmlns="http://www.w3.org/2000/svg">
<g id="Group 325">
<path id="Fill 1" fill-rule="evenodd" clip-rule="evenodd" d="M36.2495 91.2083C31.16 92.277 33.6275 83.0432 37.2597 85.1065C38.7383 85.9458 38.9779 88.4344 38.6758 89.9377C38.4289 91.1703 37.2517 90.9983 36.2495 91.2083ZM61.9359 153.483C63.3061 157.247 64.265 164.355 58.4688 164.53C56.0085 164.605 54.8207 162.453 54.5265 160.275C54.1758 157.682 55.0589 155.002 56.8524 153.095C58.5014 151.341 60.9543 150.788 61.9359 153.483ZM41.8367 193.807C37.3908 196.164 33.0599 189.431 33.8099 185.549C34.3902 182.546 38.5374 181.887 41.0708 181.852C42.8383 181.827 44.6224 182.235 46.1217 183.196C47.1538 183.859 48.4096 184.87 48.516 186.19C48.7889 189.603 44.3535 192.472 41.8367 193.807ZM41.4674 132.344C39.5176 134.64 34.5978 130.873 36.3852 128.48C37.6656 126.767 40.6921 125.629 42.636 126.831C44.5958 128.041 42.4363 131.203 41.4674 132.344ZM54.4181 107.663C54.257 111.63 48.176 111.932 45.6905 110.142C43.704 108.713 44.5385 106.017 45.385 104.123C46.316 102.039 48.6505 99.4214 51.2172 99.7141C54.2584 100.06 54.5053 105.529 54.4181 107.663ZM184.824 184.646C166.114 184.646 148.9 172.728 142.314 155.175C135.581 137.224 141.119 116.441 155.826 104.199C170.388 92.0796 191.602 90.3683 207.902 100.031C224.322 109.765 233.042 129.284 229.345 148.04C225.699 166.538 210.414 181.229 191.813 184.11C189.501 184.469 187.163 184.646 184.824 184.646ZM80.2575 170.701C80.2635 170.418 80.2695 170.137 80.2748 169.855C80.3587 169.777 80.4379 169.694 80.521 169.617L80.2575 170.701ZM87.5417 238.539C101.877 252.627 119.237 263.555 138.155 270.315C157.15 277.104 177.586 279.623 197.664 277.78C214.854 276.202 231.707 271.385 247.131 263.619C262.146 256.059 275.753 245.75 287.127 233.357C298.536 220.926 307.668 206.425 313.916 190.74C320.414 174.426 323.74 156.908 323.759 139.346C323.779 121.779 320.493 104.248 314.029 87.9137C307.815 72.2121 298.714 57.6898 287.331 45.2321C275.985 32.8158 262.4 22.4781 247.402 14.8856C231.999 7.08777 215.162 2.23456 197.981 0.617938C193.608 0.206615 189.216 0.00195312 184.824 0.00195312C159.606 0.00195312 135.957 6.73445 115.569 18.5008C99.7304 27.6419 85.7463 39.9349 74.611 54.4546C71.3602 58.6938 68.3476 63.119 65.6019 67.7022C69.9374 74.7021 72.1495 82.9245 71.9305 91.1603C81.6656 97.9095 88.7316 108.225 91.4573 119.771C94.0959 130.952 92.5787 142.818 87.3767 153.034C84.5172 158.65 80.4678 163.663 75.6778 167.739C76.0165 180.609 70.4046 193.153 60.5311 201.411C67.4127 215.17 76.5755 227.762 87.5417 238.539Z" fill="#EBBC60"/>
<path id="Fill 3" fill-rule="evenodd" clip-rule="evenodd" d="M94.7301 239.018C119.334 261.352 150.859 273.624 184.275 273.757C187.318 269.29 190.567 265.125 190.567 256.23C190.567 239.513 179.081 239.513 179.081 222.796C179.081 206.078 190.567 206.078 190.567 189.36C190.567 189.205 190.56 189.061 190.558 188.909C188.671 189.126 186.754 189.249 184.809 189.249C159.149 189.249 138.017 169.872 135.171 144.93C135.034 144.931 134.906 144.938 134.767 144.938C119.486 144.938 118.186 135.299 105.27 133.67C103.873 150.785 95.2884 162.84 86.1355 171.679C86.1355 171.679 85.8887 191.948 67.4379 204.707C73.4271 215.438 80.9149 225.414 89.8315 234.346C91.4313 235.949 93.0651 237.506 94.7301 239.018Z" fill="#F84FAA"/>
<path id="Fill 5" fill-rule="evenodd" clip-rule="evenodd" d="M301.663 133.431C284.975 133.431 284.975 144.938 268.287 144.938C251.599 144.938 251.599 133.431 234.911 133.431C234.752 133.431 234.603 133.439 234.448 133.441C234.663 135.327 234.785 137.241 234.785 139.185C234.785 164.885 215.449 186.051 190.558 188.909C190.56 189.061 190.567 189.205 190.567 189.36C190.567 206.078 179.081 206.078 179.081 222.796C179.081 239.513 190.567 239.513 190.567 256.23C190.567 265.125 187.318 269.291 184.275 273.757C184.458 273.758 184.641 273.764 184.824 273.764C220.708 273.764 254.444 259.765 279.817 234.346C305.061 209.057 319.016 175.476 319.158 139.734C314.7 136.686 310.541 133.431 301.663 133.431Z" fill="#6C3C31"/>
<path id="Fill 7" fill-rule="evenodd" clip-rule="evenodd" d="M134.833 139.185C134.833 113.473 154.184 92.3006 179.09 89.456C179.088 89.3153 179.081 89.1813 179.081 89.038C179.081 72.3178 190.567 72.3178 190.567 55.5975C190.567 38.8746 179.081 38.8746 179.081 22.1517C179.081 13.2499 182.334 9.08336 185.377 4.61214C185.193 4.61147 185.009 4.60547 184.824 4.60547C162.246 4.60547 140.52 10.1513 121.19 20.5937V20.5931V20.5937C109.799 26.7469 99.2391 34.5974 89.8313 44.0225C83.4096 50.455 77.7252 57.4281 72.806 64.8346C75.3308 67.5159 82.8532 76.4003 83.4808 87.7107C83.4808 87.7107 104.789 105.884 105.451 126.748C105.527 129.146 105.453 131.446 105.27 133.67C118.186 135.299 119.486 144.938 134.766 144.938C134.905 144.938 135.035 144.931 135.171 144.93C134.955 143.043 134.833 141.129 134.833 139.185Z" fill="#FFFCE9"/>
<path id="Fill 9" fill-rule="evenodd" clip-rule="evenodd" d="M279.817 44.0226C254.574 18.7346 221.054 4.75563 185.377 4.6123C182.334 9.08353 179.081 13.2501 179.081 22.1519C179.081 38.8748 190.567 38.8748 190.567 55.5977C190.567 72.3179 179.081 72.3179 179.081 89.0382C179.081 89.1815 179.088 89.3155 179.09 89.4562C180.967 89.2415 182.873 89.1202 184.809 89.1202C210.469 89.1202 231.602 108.498 234.448 133.441C234.604 133.439 234.752 133.431 234.911 133.431C251.599 133.431 251.599 144.938 268.287 144.938C284.975 144.938 284.975 133.431 301.663 133.431C310.541 133.431 314.7 136.686 319.158 139.734C319.159 139.551 319.165 139.368 319.165 139.185C319.165 103.237 305.191 69.4413 279.817 44.0226Z" fill="#31C9FF"/>
<path id="Fill 11" fill-rule="evenodd" clip-rule="evenodd" d="M163.916 73.3253C163.916 74.7939 162.727 75.9839 161.262 75.9839C159.796 75.9839 158.607 74.7939 158.607 73.3253C158.607 71.8567 159.796 70.666 161.262 70.666C162.727 70.666 163.916 71.8567 163.916 73.3253Z" fill="#5822F3"/>
<path id="Fill 13" fill-rule="evenodd" clip-rule="evenodd" d="M165.607 89.6166C165.607 91.0852 164.418 92.2759 162.952 92.2759C161.486 92.2759 160.297 91.0852 160.297 89.6166C160.297 88.1486 161.486 86.958 162.952 86.958C164.418 86.958 165.607 88.1486 165.607 89.6166Z" fill="#1CF160"/>
<path id="Fill 15" fill-rule="evenodd" clip-rule="evenodd" d="M180.423 64.3067C180.423 65.7754 179.235 66.9653 177.769 66.9653C176.303 66.9653 175.114 65.7754 175.114 64.3067C175.114 62.8381 176.303 61.6475 177.769 61.6475C179.235 61.6475 180.423 62.8381 180.423 64.3067Z" fill="#FFB700"/>
<path id="Fill 17" fill-rule="evenodd" clip-rule="evenodd" d="M187.479 59.7377C187.479 61.2063 186.29 62.397 184.824 62.397C183.358 62.397 182.169 61.2063 182.169 59.7377C182.169 58.2691 183.358 57.0791 184.824 57.0791C186.29 57.0791 187.479 58.2691 187.479 59.7377Z" fill="#31C9FF"/>
<path id="Fill 19" fill-rule="evenodd" clip-rule="evenodd" d="M182.139 72.4913C182.139 73.9599 180.95 75.1506 179.484 75.1506C178.018 75.1506 176.829 73.9599 176.829 72.4913C176.829 71.0227 178.018 69.832 179.484 69.832C180.95 69.832 182.139 71.0227 182.139 72.4913Z" fill="#1CF160"/>
<path id="Fill 21" fill-rule="evenodd" clip-rule="evenodd" d="M174.301 74.9386C174.301 76.4072 173.112 77.5978 171.646 77.5978C170.18 77.5978 168.991 76.4072 168.991 74.9386C168.991 73.4699 170.18 72.2793 171.646 72.2793C173.112 72.2793 174.301 73.4699 174.301 74.9386Z" fill="#F84FAA"/>
<path id="Fill 23" fill-rule="evenodd" clip-rule="evenodd" d="M165.607 81.8477C165.607 83.3164 164.418 84.507 162.952 84.507C161.486 84.507 160.297 83.3164 160.297 81.8477C160.297 80.3791 161.486 79.1885 162.952 79.1885C164.418 79.1885 165.607 80.3791 165.607 81.8477Z" fill="#31C9FF"/>
<path id="Fill 25" fill-rule="evenodd" clip-rule="evenodd" d="M177.245 85.9093C177.245 87.3779 176.057 88.5685 174.591 88.5685C173.125 88.5685 171.936 87.3779 171.936 85.9093C171.936 84.4406 173.125 83.25 174.591 83.25C176.057 83.25 177.245 84.4406 177.245 85.9093Z" fill="#FFB700"/>
<path id="Fill 27" fill-rule="evenodd" clip-rule="evenodd" d="M181.735 46.9845C181.735 48.4531 180.547 49.6431 179.082 49.6431C177.616 49.6431 176.426 48.4531 176.426 46.9845C176.426 45.5158 177.616 44.3252 179.082 44.3252C180.547 44.3252 181.735 45.5158 181.735 46.9845Z" fill="#F22F29"/>
<path id="Fill 29" fill-rule="evenodd" clip-rule="evenodd" d="M187.162 52.6905C187.162 54.1591 185.973 55.3498 184.507 55.3498C183.041 55.3498 181.852 54.1591 181.852 52.6905C181.852 51.2219 183.041 50.0312 184.507 50.0312C185.973 50.0312 187.162 51.2219 187.162 52.6905Z" fill="#5822F3"/>
<path id="Fill 31" fill-rule="evenodd" clip-rule="evenodd" d="M176.59 55.6456C176.59 57.1142 175.402 58.3042 173.936 58.3042C172.47 58.3042 171.281 57.1142 171.281 55.6456C171.281 54.177 172.47 52.9863 173.936 52.9863C175.402 52.9863 176.59 54.177 176.59 55.6456Z" fill="#F84FAA"/>
<path id="Fill 33" fill-rule="evenodd" clip-rule="evenodd" d="M164.476 42.4112C164.476 43.8792 163.288 45.0698 161.822 45.0698C160.356 45.0698 159.167 43.8792 159.167 42.4112C159.167 40.9426 160.356 39.752 161.822 39.752C163.288 39.752 164.476 40.9426 164.476 42.4112Z" fill="#1CF160"/>
<path id="Fill 35" fill-rule="evenodd" clip-rule="evenodd" d="M169.806 23.5404C169.806 25.0091 168.617 26.1997 167.151 26.1997C165.685 26.1997 164.496 25.0091 164.496 23.5404C164.496 22.0718 165.685 20.8818 167.151 20.8818C168.617 20.8818 169.806 22.0718 169.806 23.5404Z" fill="#31C9FF"/>
<path id="Fill 37" fill-rule="evenodd" clip-rule="evenodd" d="M176.59 24.9464C176.59 26.415 175.402 27.605 173.936 27.605C172.47 27.605 171.281 26.415 171.281 24.9464C171.281 23.4777 172.47 22.2871 173.936 22.2871C175.402 22.2871 176.59 23.4777 176.59 24.9464Z" fill="#FFB700"/>
<path id="Fill 39" fill-rule="evenodd" clip-rule="evenodd" d="M175.705 17.0294C175.705 18.498 174.516 19.6886 173.05 19.6886C171.584 19.6886 170.395 18.498 170.395 17.0294C170.395 15.5608 171.584 14.3701 173.05 14.3701C174.516 14.3701 175.705 15.5608 175.705 17.0294Z" fill="#F84FAA"/>
<path id="Fill 41" fill-rule="evenodd" clip-rule="evenodd" d="M180.195 9.44638C180.195 10.9143 179.007 12.105 177.541 12.105C176.075 12.105 174.885 10.9143 174.885 9.44638C174.885 7.97775 176.075 6.78711 177.541 6.78711C179.007 6.78711 180.195 7.97775 180.195 9.44638Z" fill="#5822F3"/>
<path id="Fill 43" fill-rule="evenodd" clip-rule="evenodd" d="M170.84 10.5265C170.84 11.9951 169.651 13.1857 168.185 13.1857C166.719 13.1857 165.53 11.9951 165.53 10.5265C165.53 9.05782 166.719 7.86719 168.185 7.86719C169.651 7.86719 170.84 9.05782 170.84 10.5265Z" fill="#1CF160"/>
<path id="Fill 45" fill-rule="evenodd" clip-rule="evenodd" d="M164.94 17.6309C164.94 19.0996 163.752 20.2902 162.286 20.2902C160.82 20.2902 159.631 19.0996 159.631 17.6309C159.631 16.1623 160.82 14.9717 162.286 14.9717C163.752 14.9717 164.94 16.1623 164.94 17.6309Z" fill="#F84FAA"/>
<path id="Fill 47" fill-rule="evenodd" clip-rule="evenodd" d="M158.577 11.7218C158.577 13.1904 157.389 14.381 155.923 14.381C154.457 14.381 153.268 13.1904 153.268 11.7218C153.268 10.2531 154.457 9.0625 155.923 9.0625C157.389 9.0625 158.577 10.2531 158.577 11.7218Z" fill="#31C9FF"/>
<path id="Fill 49" fill-rule="evenodd" clip-rule="evenodd" d="M180.195 35.0385C180.195 36.5071 179.007 37.6977 177.541 37.6977C176.075 37.6977 174.885 36.5071 174.885 35.0385C174.885 33.5699 176.075 32.3799 177.541 32.3799C179.007 32.3799 180.195 33.5699 180.195 35.0385Z" fill="#F84FAA"/>
<path id="Fill 51" fill-rule="evenodd" clip-rule="evenodd" d="M170.376 32.9718C170.376 34.4404 169.187 35.631 167.721 35.631C166.255 35.631 165.066 34.4404 165.066 32.9718C165.066 31.5031 166.255 30.3125 167.721 30.3125C169.187 30.3125 170.376 31.5031 170.376 32.9718Z" fill="#FFF300"/>
<path id="Fill 53" fill-rule="evenodd" clip-rule="evenodd" d="M159.708 62.6554C159.708 64.124 158.52 65.314 157.053 65.314C155.587 65.314 154.398 64.124 154.398 62.6554C154.398 61.1867 155.587 59.9961 157.053 59.9961C158.52 59.9961 159.708 61.1867 159.708 62.6554Z" fill="#F84FAA"/>
<path id="Fill 55" fill-rule="evenodd" clip-rule="evenodd" d="M154.385 68.5645C154.385 70.0332 153.196 71.2238 151.73 71.2238C150.264 71.2238 149.076 70.0332 149.076 68.5645C149.076 67.0959 150.264 65.9053 151.73 65.9053C153.196 65.9053 154.385 67.0959 154.385 68.5645Z" fill="#1CF160"/>
<path id="Fill 57" fill-rule="evenodd" clip-rule="evenodd" d="M150.568 60.849C150.568 62.3177 149.379 63.5083 147.913 63.5083C146.447 63.5083 145.258 62.3177 145.258 60.849C145.258 59.3804 146.447 58.1904 147.913 58.1904C149.379 58.1904 150.568 59.3804 150.568 60.849Z" fill="#FFF300"/>
<path id="Fill 59" fill-rule="evenodd" clip-rule="evenodd" d="M169.484 67.4161C169.484 68.8841 168.296 70.0747 166.829 70.0747C165.363 70.0747 164.175 68.8841 164.175 67.4161C164.175 65.9475 165.363 64.7568 166.829 64.7568C168.296 64.7568 169.484 65.9475 169.484 67.4161Z" fill="#1CF160"/>
<path id="Fill 61" fill-rule="evenodd" clip-rule="evenodd" d="M167.426 59.8927C167.426 61.3613 166.237 62.5519 164.771 62.5519C163.305 62.5519 162.117 61.3613 162.117 59.8927C162.117 58.424 163.305 57.2334 164.771 57.2334C166.237 57.2334 167.426 58.424 167.426 59.8927Z" fill="#31C9FF"/>
<path id="Fill 63" fill-rule="evenodd" clip-rule="evenodd" d="M159.1 51.9838C159.1 53.4524 157.911 54.6431 156.445 54.6431C154.979 54.6431 153.79 53.4524 153.79 51.9838C153.79 50.5152 154.979 49.3252 156.445 49.3252C157.911 49.3252 159.1 50.5152 159.1 51.9838Z" fill="#FFB700"/>
<path id="Fill 65" fill-rule="evenodd" clip-rule="evenodd" d="M155.733 76.2797C155.733 77.7483 154.545 78.939 153.079 78.939C151.613 78.939 150.424 77.7483 150.424 76.2797C150.424 74.8111 151.613 73.6211 153.079 73.6211C154.545 73.6211 155.733 74.8111 155.733 76.2797Z" fill="#FFB700"/>
<path id="Fill 67" fill-rule="evenodd" clip-rule="evenodd" d="M128.993 30.3126C128.993 31.7812 127.805 32.9719 126.339 32.9719C124.873 32.9719 123.683 31.7812 123.683 30.3126C123.683 28.844 124.873 27.6533 126.339 27.6533C127.805 27.6533 128.993 28.844 128.993 30.3126Z" fill="#FFB700"/>
<path id="Fill 69" fill-rule="evenodd" clip-rule="evenodd" d="M146.388 65.6095C146.388 67.0781 145.199 68.2687 143.733 68.2687C142.267 68.2687 141.079 67.0781 141.079 65.6095C141.079 64.1408 142.267 62.9502 143.733 62.9502C145.199 62.9502 146.388 64.1408 146.388 65.6095Z" fill="#31C9FF"/>
<path id="Fill 71" fill-rule="evenodd" clip-rule="evenodd" d="M146.388 74.4249C146.388 75.8935 145.199 77.0842 143.733 77.0842C142.267 77.0842 141.079 75.8935 141.079 74.4249C141.079 72.9563 142.267 71.7656 143.733 71.7656C145.199 71.7656 146.388 72.9563 146.388 74.4249Z" fill="#F84FAA"/>
<path id="Fill 73" fill-rule="evenodd" clip-rule="evenodd" d="M126.782 74.4249C126.782 75.8935 125.593 77.0842 124.127 77.0842C122.661 77.0842 121.473 75.8935 121.473 74.4249C121.473 72.9563 122.661 71.7656 124.127 71.7656C125.593 71.7656 126.782 72.9563 126.782 74.4249Z" fill="#1CF160"/>
<path id="Fill 75" fill-rule="evenodd" clip-rule="evenodd" d="M141.427 59.7003C141.427 61.1689 140.239 62.3595 138.773 62.3595C137.307 62.3595 136.118 61.1689 136.118 59.7003C136.118 58.2317 137.307 57.041 138.773 57.041C140.239 57.041 141.427 58.2317 141.427 59.7003Z" fill="#F22F29"/>
<path id="Fill 77" fill-rule="evenodd" clip-rule="evenodd" d="M135.925 79.2345C135.925 80.7031 134.736 81.8937 133.27 81.8937C131.804 81.8937 130.615 80.7031 130.615 79.2345C130.615 77.7658 131.804 76.5752 133.27 76.5752C134.736 76.5752 135.925 77.7658 135.925 79.2345Z" fill="#31C9FF"/>
<path id="Fill 79" fill-rule="evenodd" clip-rule="evenodd" d="M131.706 65.7433C131.706 67.2119 130.517 68.4025 129.051 68.4025C127.585 68.4025 126.396 67.2119 126.396 65.7433C126.396 64.2746 127.585 63.084 129.051 63.084C130.517 63.084 131.706 64.2746 131.706 65.7433Z" fill="#FFF300"/>
<path id="Fill 81" fill-rule="evenodd" clip-rule="evenodd" d="M136.797 34.9542C136.797 36.4228 135.608 37.6135 134.142 37.6135C132.676 37.6135 131.487 36.4228 131.487 34.9542C131.487 33.4856 132.676 32.2949 134.142 32.2949C135.608 32.2949 136.797 33.4856 136.797 34.9542Z" fill="#FFF300"/>
<path id="Fill 83" fill-rule="evenodd" clip-rule="evenodd" d="M146.388 92.5714C146.388 94.04 145.199 95.2306 143.733 95.2306C142.267 95.2306 141.079 94.04 141.079 92.5714C141.079 91.1027 142.267 89.9121 143.733 89.9121C145.199 89.9121 146.388 91.1027 146.388 92.5714Z" fill="#F84FAA"/>
<path id="Fill 85" fill-rule="evenodd" clip-rule="evenodd" d="M119.763 32.3722C119.763 33.8408 118.575 35.0308 117.109 35.0308C115.642 35.0308 114.453 33.8408 114.453 32.3722C114.453 30.9035 115.642 29.7129 117.109 29.7129C118.575 29.7129 119.763 30.9035 119.763 32.3722Z" fill="#F84FAA"/>
<path id="Fill 87" fill-rule="evenodd" clip-rule="evenodd" d="M145.35 83.8028C145.35 85.2715 144.162 86.4621 142.696 86.4621C141.23 86.4621 140.041 85.2715 140.041 83.8028C140.041 82.3342 141.23 81.1436 142.696 81.1436C144.162 81.1436 145.35 82.3342 145.35 83.8028Z" fill="#5822F3"/>
<path id="Fill 89" fill-rule="evenodd" clip-rule="evenodd" d="M148.3 101.862C148.3 103.331 147.111 104.522 145.645 104.522C144.179 104.522 142.99 103.331 142.99 101.862C142.99 100.394 144.179 99.2031 145.645 99.2031C147.111 99.2031 148.3 100.394 148.3 101.862Z" fill="#FFB700"/>
<path id="Fill 91" fill-rule="evenodd" clip-rule="evenodd" d="M138.965 86.7572C138.965 88.2259 137.776 89.4165 136.31 89.4165C134.844 89.4165 133.655 88.2259 133.655 86.7572C133.655 85.2893 134.844 84.0986 136.31 84.0986C137.776 84.0986 138.965 85.2893 138.965 86.7572Z" fill="#31C9FF"/>
<path id="Fill 93" fill-rule="evenodd" clip-rule="evenodd" d="M140.452 98.9073C140.452 100.376 139.264 101.567 137.798 101.567C136.332 101.567 135.143 100.376 135.143 98.9073C135.143 97.4387 136.332 96.248 137.798 96.248C139.264 96.248 140.452 97.4387 140.452 98.9073Z" fill="#1CF160"/>
<path id="Fill 95" fill-rule="evenodd" clip-rule="evenodd" d="M119.268 73.3253C119.268 74.7939 118.079 75.9839 116.613 75.9839C115.147 75.9839 113.958 74.7939 113.958 73.3253C113.958 71.8567 115.147 70.666 116.613 70.666C118.079 70.666 119.268 71.8567 119.268 73.3253Z" fill="#31C9FF"/>
<path id="Fill 97" fill-rule="evenodd" clip-rule="evenodd" d="M122.804 65.7433C122.804 67.2119 121.616 68.4025 120.15 68.4025C118.685 68.4025 117.495 67.2119 117.495 65.7433C117.495 64.2746 118.685 63.084 120.15 63.084C121.616 63.084 122.804 64.2746 122.804 65.7433Z" fill="#F84FAA"/>
<path id="Fill 99" fill-rule="evenodd" clip-rule="evenodd" d="M111.872 68.6977C111.872 70.1663 110.683 71.3569 109.217 71.3569C107.752 71.3569 106.563 70.1663 106.563 68.6977C106.563 67.2297 107.752 66.0391 109.217 66.0391C110.683 66.0391 111.872 67.2297 111.872 68.6977Z" fill="#5822F3"/>
<path id="Fill 101" fill-rule="evenodd" clip-rule="evenodd" d="M106.187 74.4249C106.187 75.8935 104.998 77.0842 103.532 77.0842C102.066 77.0842 100.878 75.8935 100.878 74.4249C100.878 72.9563 102.066 71.7656 103.532 71.7656C104.998 71.7656 106.187 72.9563 106.187 74.4249Z" fill="#1CF160"/>
<path id="Fill 103" fill-rule="evenodd" clip-rule="evenodd" d="M99.3662 78.3009C99.3662 79.7695 98.1777 80.9601 96.7117 80.9601C95.2456 80.9601 94.0565 79.7695 94.0565 78.3009C94.0565 76.8322 95.2456 75.6416 96.7117 75.6416C98.1777 75.6416 99.3662 76.8322 99.3662 78.3009Z" fill="#FFB700"/>
<path id="Fill 105" fill-rule="evenodd" clip-rule="evenodd" d="M94.2368 88.5684C94.2368 90.0371 93.0489 91.227 91.5829 91.227C90.1169 91.227 88.9277 90.0371 88.9277 88.5684C88.9277 87.0998 90.1169 85.9092 91.5829 85.9092C93.0489 85.9092 94.2368 87.0998 94.2368 88.5684Z" fill="#5822F3"/>
<path id="Fill 107" fill-rule="evenodd" clip-rule="evenodd" d="M111.872 80.8481C111.872 82.3167 110.683 83.5073 109.217 83.5073C107.752 83.5073 106.563 82.3167 106.563 80.8481C106.563 79.3794 107.752 78.1895 109.217 78.1895C110.683 78.1895 111.872 79.3794 111.872 80.8481Z" fill="#F84FAA"/>
<path id="Fill 109" fill-rule="evenodd" clip-rule="evenodd" d="M119.855 83.8028C119.855 85.2715 118.667 86.4621 117.201 86.4621C115.735 86.4621 114.546 85.2715 114.546 83.8028C114.546 82.3342 115.735 81.1436 117.201 81.1436C118.667 81.1436 119.855 82.3342 119.855 83.8028Z" fill="#F22F29"/>
<path id="Fill 111" fill-rule="evenodd" clip-rule="evenodd" d="M106.187 92.9981C106.187 94.4668 104.998 95.6574 103.532 95.6574C102.066 95.6574 100.878 94.4668 100.878 92.9981C100.878 91.5295 102.066 90.3389 103.532 90.3389C104.998 90.3389 106.187 91.5295 106.187 92.9981Z" fill="#31C9FF"/>
<path id="Fill 113" fill-rule="evenodd" clip-rule="evenodd" d="M99.9914 93.4268C99.9914 94.8955 98.8029 96.0854 97.3369 96.0854C95.8709 96.0854 94.6823 94.8955 94.6823 93.4268C94.6823 91.9582 95.8709 90.7676 97.3369 90.7676C98.8029 90.7676 99.9914 91.9582 99.9914 93.4268Z" fill="#FFB700"/>
<path id="Fill 115" fill-rule="evenodd" clip-rule="evenodd" d="M86.2733 70.6866C86.2733 72.1552 85.0848 73.3459 83.6187 73.3459C82.1527 73.3459 80.9642 72.1552 80.9642 70.6866C80.9642 69.218 82.1527 68.0273 83.6187 68.0273C85.0848 68.0273 86.2733 69.218 86.2733 70.6866Z" fill="#1CF160"/>
<path id="Fill 117" fill-rule="evenodd" clip-rule="evenodd" d="M114.821 90.7677C114.821 92.2363 113.633 93.4269 112.167 93.4269C110.701 93.4269 109.512 92.2363 109.512 90.7677C109.512 89.299 110.701 88.1084 112.167 88.1084C113.633 88.1084 114.821 89.299 114.821 90.7677Z" fill="#FFF300"/>
<path id="Fill 119" fill-rule="evenodd" clip-rule="evenodd" d="M95.4976 68.0268C95.4976 69.4954 94.3091 70.686 92.8437 70.686C91.3777 70.686 90.1885 69.4954 90.1885 68.0268C90.1885 66.5581 91.3777 65.3682 92.8437 65.3682C94.3091 65.3682 95.4976 66.5581 95.4976 68.0268Z" fill="#FFF300"/>
<path id="Fill 121" fill-rule="evenodd" clip-rule="evenodd" d="M120.883 99.7901C120.883 101.259 119.694 102.449 118.228 102.449C116.762 102.449 115.573 101.259 115.573 99.7901C115.573 98.3215 116.762 97.1309 118.228 97.1309C119.694 97.1309 120.883 98.3215 120.883 99.7901Z" fill="#FFB700"/>
<path id="Fill 123" fill-rule="evenodd" clip-rule="evenodd" d="M111.872 100.692C111.872 102.161 110.683 103.351 109.217 103.351C107.752 103.351 106.563 102.161 106.563 100.692C106.563 99.2238 107.752 98.0332 109.217 98.0332C110.683 98.0332 111.872 99.2238 111.872 100.692Z" fill="#5822F3"/>
<path id="Fill 125" fill-rule="evenodd" clip-rule="evenodd" d="M115.757 107.753C115.757 109.222 114.569 110.412 113.103 110.412C111.637 110.412 110.448 109.222 110.448 107.753C110.448 106.284 111.637 105.094 113.103 105.094C114.569 105.094 115.757 106.284 115.757 107.753Z" fill="#1CF160"/>
<path id="Fill 127" fill-rule="evenodd" clip-rule="evenodd" d="M120.904 125.805C120.904 127.273 119.715 128.464 118.249 128.464C116.783 128.464 115.594 127.273 115.594 125.805C115.594 124.336 116.783 123.146 118.249 123.146C119.715 123.146 120.904 124.336 120.904 125.805Z" fill="#5822F3"/>
<path id="Fill 129" fill-rule="evenodd" clip-rule="evenodd" d="M135.528 126.877C135.528 128.346 134.34 129.536 132.874 129.536C131.408 129.536 130.219 128.346 130.219 126.877C130.219 125.408 131.408 124.218 132.874 124.218C134.34 124.218 135.528 125.408 135.528 126.877Z" fill="#F22F29"/>
<path id="Fill 131" fill-rule="evenodd" clip-rule="evenodd" d="M134.553 139.605C134.553 141.073 133.365 142.264 131.899 142.264C130.433 142.264 129.244 141.073 129.244 139.605C129.244 138.136 130.433 136.945 131.899 136.945C133.365 136.945 134.553 138.136 134.553 139.605Z" fill="#F84FAA"/>
<path id="Fill 133" fill-rule="evenodd" clip-rule="evenodd" d="M132.975 115.254C132.975 116.723 131.787 117.913 130.321 117.913C128.855 117.913 127.666 116.723 127.666 115.254C127.666 113.785 128.855 112.595 130.321 112.595C131.787 112.595 132.975 113.785 132.975 115.254Z" fill="#31C9FF"/>
<path id="Fill 135" fill-rule="evenodd" clip-rule="evenodd" d="M113.103 130.891C113.103 132.359 111.914 133.55 110.448 133.55C108.982 133.55 107.793 132.359 107.793 130.891C107.793 129.422 108.982 128.231 110.448 128.231C111.914 128.231 113.103 129.422 113.103 130.891Z" fill="#31C9FF"/>
<path id="Fill 137" fill-rule="evenodd" clip-rule="evenodd" d="M127.655 107.512C127.655 108.98 126.467 110.17 125.001 110.17C123.535 110.17 122.345 108.98 122.345 107.512C122.345 106.043 123.535 104.853 125.001 104.853C126.467 104.853 127.655 106.043 127.655 107.512Z" fill="#F84FAA"/>
<path id="Fill 139" fill-rule="evenodd" clip-rule="evenodd" d="M101.504 84.8022C101.504 86.2708 100.316 87.4614 98.8498 87.4614C97.3837 87.4614 96.1945 86.2708 96.1945 84.8022C96.1945 83.3335 97.3837 82.1436 98.8498 82.1436C100.316 82.1436 101.504 83.3335 101.504 84.8022Z" fill="#F22F29"/>
<path id="Fill 141" fill-rule="evenodd" clip-rule="evenodd" d="M109.136 109.64C109.136 111.109 107.948 112.299 106.482 112.299C105.016 112.299 103.827 111.109 103.827 109.64C103.827 108.171 105.016 106.981 106.482 106.981C107.948 106.981 109.136 108.171 109.136 109.64Z" fill="#FFB700"/>
<path id="Fill 143" fill-rule="evenodd" clip-rule="evenodd" d="M112.086 122.285C112.086 123.754 110.898 124.944 109.432 124.944C107.966 124.944 106.776 123.754 106.776 122.285C106.776 120.817 107.966 119.626 109.432 119.626C110.898 119.626 112.086 120.817 112.086 122.285Z" fill="#F84FAA"/>
<path id="Fill 145" fill-rule="evenodd" clip-rule="evenodd" d="M121.462 116.375C121.462 117.844 120.275 119.035 118.809 119.035C117.343 119.035 116.153 117.844 116.153 116.375C116.153 114.907 117.343 113.717 118.809 113.717C120.275 113.717 121.462 114.907 121.462 116.375Z" fill="#FFF300"/>
<path id="Fill 147" fill-rule="evenodd" clip-rule="evenodd" d="M124.705 94.046C124.705 95.5146 123.517 96.7053 122.051 96.7053C120.585 96.7053 119.396 95.5146 119.396 94.046C119.396 92.5774 120.585 91.3867 122.051 91.3867C123.517 91.3867 124.705 92.5774 124.705 94.046Z" fill="#5822F3"/>
<path id="Fill 149" fill-rule="evenodd" clip-rule="evenodd" d="M127.655 84.6524C127.655 86.1211 126.467 87.3117 125.001 87.3117C123.535 87.3117 122.345 86.1211 122.345 84.6524C122.345 83.1838 123.535 81.9932 125.001 81.9932C126.467 81.9932 127.655 83.1838 127.655 84.6524Z" fill="#F84FAA"/>
<path id="Fill 151" fill-rule="evenodd" clip-rule="evenodd" d="M132.579 91.0909C132.579 92.5595 131.391 93.7502 129.925 93.7502C128.459 93.7502 127.269 92.5595 127.269 91.0909C127.269 89.6223 128.459 88.4316 129.925 88.4316C131.391 88.4316 132.579 89.6223 132.579 91.0909Z" fill="#FFB700"/>
<path id="Fill 153" fill-rule="evenodd" clip-rule="evenodd" d="M131.706 99.7901C131.706 101.259 130.517 102.449 129.051 102.449C127.585 102.449 126.396 101.259 126.396 99.7901C126.396 98.3215 127.585 97.1309 129.051 97.1309C130.517 97.1309 131.706 98.3215 131.706 99.7901Z" fill="#FFF300"/>
<path id="Fill 155" fill-rule="evenodd" clip-rule="evenodd" d="M140.604 110.696C140.604 112.165 139.415 113.355 137.949 113.355C136.483 113.355 135.294 112.165 135.294 110.696C135.294 109.228 136.483 108.037 137.949 108.037C139.415 108.037 140.604 109.228 140.604 110.696Z" fill="#F22F29"/>
<path id="Fill 157" fill-rule="evenodd" clip-rule="evenodd" d="M127.655 121.948C127.655 123.417 126.467 124.608 125.001 124.608C123.535 124.608 122.345 123.417 122.345 121.948C122.345 120.48 123.535 119.289 125.001 119.289C126.467 119.289 127.655 120.48 127.655 121.948Z" fill="#FFB700"/>
<path id="Fill 159" fill-rule="evenodd" clip-rule="evenodd" d="M127.655 130.741C127.655 132.209 126.467 133.4 125.001 133.4C123.535 133.4 122.345 132.209 122.345 130.741C122.345 129.272 123.535 128.082 125.001 128.082C126.467 128.082 127.655 129.272 127.655 130.741Z" fill="#1CF160"/>
<path id="Fill 161" fill-rule="evenodd" clip-rule="evenodd" d="M121.756 135.369C121.756 136.837 120.568 138.028 119.102 138.028C117.636 138.028 116.447 136.837 116.447 135.369C116.447 133.901 117.636 132.71 119.102 132.71C120.568 132.71 121.756 133.901 121.756 135.369Z" fill="#FFB700"/>
<path id="Fill 163" fill-rule="evenodd" clip-rule="evenodd" d="M122.772 168.895C122.109 168.895 121.45 168.609 120.995 168.054L113.07 158.385C112.265 157.403 112.407 155.953 113.388 155.146C114.367 154.34 115.815 154.48 116.621 155.465L124.547 165.133C125.351 166.116 125.21 167.566 124.228 168.373C123.801 168.724 123.285 168.895 122.772 168.895Z" fill="#FFF300"/>
<path id="Fill 165" fill-rule="evenodd" clip-rule="evenodd" d="M121.533 191.635C120.993 191.635 120.449 191.445 120.013 191.058C119.062 190.216 118.973 188.761 119.813 187.809L128.084 178.436C128.924 177.484 130.377 177.393 131.327 178.235C132.278 179.077 132.367 180.532 131.527 181.484L123.256 190.857C122.801 191.372 122.169 191.635 121.533 191.635Z" fill="#31C9FF"/>
<path id="Fill 167" fill-rule="evenodd" clip-rule="evenodd" d="M85.1939 213.861C84.0839 213.861 83.1077 213.053 82.9286 211.921L80.9675 199.565C80.7692 198.31 81.623 197.13 82.8761 196.931C84.1325 196.73 85.307 197.587 85.5053 198.842L87.4658 211.198C87.6648 212.453 86.811 213.633 85.5572 213.832C85.4348 213.851 85.3143 213.861 85.1939 213.861Z" fill="#31C9FF"/>
<path id="Fill 169" fill-rule="evenodd" clip-rule="evenodd" d="M127.37 218.465C126.829 218.465 126.287 218.275 125.85 217.887C124.899 217.045 124.809 215.591 125.65 214.64L133.921 205.265C134.759 204.314 136.211 204.223 137.164 205.065C138.114 205.907 138.203 207.362 137.364 208.314L129.093 217.687C128.638 218.201 128.006 218.465 127.37 218.465Z" fill="#FFFCE9"/>
<path id="Fill 171" fill-rule="evenodd" clip-rule="evenodd" d="M99.4689 185.89C99.4496 185.89 99.4297 185.89 99.4104 185.89C98.142 185.858 97.1398 184.802 97.1711 183.531L97.5051 170.212C97.5371 168.942 98.5905 167.919 99.8596 167.97C101.127 168.002 102.129 169.058 102.098 170.328L101.764 183.647C101.733 184.898 100.711 185.89 99.4689 185.89Z" fill="#FFFCE9"/>
<path id="Fill 173" fill-rule="evenodd" clip-rule="evenodd" d="M169.064 230.937H169.062C167.794 230.935 166.766 229.905 166.766 228.634L166.772 215.31C166.773 214.039 167.802 213.01 169.07 213.01H169.071C170.339 213.011 171.367 214.041 171.367 215.312L171.361 228.636C171.36 229.907 170.331 230.937 169.064 230.937Z" fill="#FFF300"/>
<path id="Fill 175" fill-rule="evenodd" clip-rule="evenodd" d="M108.913 220.44C108.283 220.44 107.656 220.181 107.203 219.675L98.8729 210.37C98.0258 209.423 98.1043 207.968 99.0493 207.12C99.9929 206.27 101.445 206.35 102.293 207.296L110.622 216.602C111.47 217.548 111.391 219.004 110.447 219.852C110.008 220.245 109.459 220.44 108.913 220.44Z" fill="white"/>
<path id="Fill 177" fill-rule="evenodd" clip-rule="evenodd" d="M150.573 248.901C149.462 248.901 148.485 248.091 148.308 246.957C148.11 245.702 148.966 244.524 150.219 244.326L161.749 242.509C163.009 242.315 164.179 243.168 164.375 244.425C164.573 245.68 163.716 246.858 162.463 247.055L150.934 248.873C150.812 248.891 150.693 248.901 150.573 248.901Z" fill="#31C9FF"/>
<path id="Fill 179" fill-rule="evenodd" clip-rule="evenodd" d="M170.651 266.534C170.257 266.534 169.858 266.433 169.493 266.218C168.397 265.577 168.03 264.167 168.671 263.07L174.57 252.98C175.212 251.883 176.618 251.514 177.713 252.158C178.808 252.799 179.176 254.21 178.534 255.306L172.636 265.396C172.208 266.128 171.44 266.534 170.651 266.534Z" fill="#FFFCE9"/>
<path id="Fill 181" fill-rule="evenodd" clip-rule="evenodd" d="M159.258 201.451C158.579 201.451 157.906 201.15 157.452 200.574L149.664 190.673C148.878 189.675 149.049 188.228 150.046 187.441C151.042 186.654 152.487 186.826 153.272 187.825L161.061 197.725C161.846 198.723 161.675 200.17 160.679 200.957C160.257 201.289 159.756 201.451 159.258 201.451Z" fill="#FFFCE9"/>
<path id="Fill 183" fill-rule="evenodd" clip-rule="evenodd" d="M124.415 254.615C124.343 254.615 124.268 254.612 124.195 254.605C122.932 254.485 122.005 253.361 122.126 252.096L123.383 238.85C123.503 237.584 124.624 236.668 125.888 236.776C127.151 236.897 128.077 238.02 127.957 239.286L126.7 252.532C126.587 253.723 125.586 254.615 124.415 254.615Z" fill="#FFF300"/>
<path id="Fill 185" fill-rule="evenodd" clip-rule="evenodd" d="M142.401 29.1212C142.401 30.5898 141.212 31.7804 139.746 31.7804C138.28 31.7804 137.091 30.5898 137.091 29.1212C137.091 27.6526 138.28 26.4619 139.746 26.4619C141.212 26.4619 142.401 27.6526 142.401 29.1212Z" fill="#1CF160"/>
<path id="Fill 187" fill-rule="evenodd" clip-rule="evenodd" d="M148.3 24.9464C148.3 26.415 147.111 27.605 145.645 27.605C144.179 27.605 142.99 26.415 142.99 24.9464C142.99 23.4777 144.179 22.2871 145.645 22.2871C147.111 22.2871 148.3 23.4777 148.3 24.9464Z" fill="#FFB700"/>
<path id="Fill 189" fill-rule="evenodd" clip-rule="evenodd" d="M152.416 33.6749C152.416 35.1435 151.227 36.3335 149.762 36.3335C148.296 36.3335 147.107 35.1435 147.107 33.6749C147.107 32.2063 148.296 31.0156 149.762 31.0156C151.227 31.0156 152.416 32.2063 152.416 33.6749Z" fill="#FFF300"/>
<path id="Fill 191" fill-rule="evenodd" clip-rule="evenodd" d="M160.096 23.9649C160.096 25.4336 158.907 26.6235 157.441 26.6235C155.976 26.6235 154.787 25.4336 154.787 23.9649C154.787 22.4963 155.976 21.3057 157.441 21.3057C158.907 21.3057 160.096 22.4963 160.096 23.9649Z" fill="#5822F3"/>
<path id="Fill 193" fill-rule="evenodd" clip-rule="evenodd" d="M160.967 34.1808C160.967 35.6494 159.778 36.84 158.312 36.84C156.846 36.84 155.657 35.6494 155.657 34.1808C155.657 32.7121 156.846 31.5215 158.312 31.5215C159.778 31.5215 160.967 32.7121 160.967 34.1808Z" fill="#31C9FF"/>
<path id="Fill 195" fill-rule="evenodd" clip-rule="evenodd" d="M167.426 51.9838C167.426 53.4524 166.237 54.6431 164.771 54.6431C163.305 54.6431 162.117 53.4524 162.117 51.9838C162.117 50.5152 163.305 49.3252 164.771 49.3252C166.237 49.3252 167.426 50.5152 167.426 51.9838Z" fill="#5822F3"/>
<path id="Fill 197" fill-rule="evenodd" clip-rule="evenodd" d="M174.296 42.4112C174.296 43.8792 173.107 45.0698 171.641 45.0698C170.175 45.0698 168.987 43.8792 168.987 42.4112C168.987 40.9426 170.175 39.752 171.641 39.752C173.107 39.752 174.296 40.9426 174.296 42.4112Z" fill="#FFB700"/>
<path id="Fill 199" fill-rule="evenodd" clip-rule="evenodd" d="M154.198 18.4623C154.198 19.9309 153.011 21.1216 151.545 21.1216C150.079 21.1216 148.889 19.9309 148.889 18.4623C148.889 16.9937 150.079 15.8037 151.545 15.8037C153.011 15.8037 154.198 16.9937 154.198 18.4623Z" fill="#F84FAA"/>
<path id="Fill 201" fill-rule="evenodd" clip-rule="evenodd" d="M146.388 17.0294C146.388 18.498 145.199 19.6886 143.733 19.6886C142.267 19.6886 141.079 18.498 141.079 17.0294C141.079 15.5608 142.267 14.3701 143.733 14.3701C145.199 14.3701 146.388 15.5608 146.388 17.0294Z" fill="#F22F29"/>
<path id="Fill 203" fill-rule="evenodd" clip-rule="evenodd" d="M139.451 18.4623C139.451 19.9309 138.263 21.1216 136.797 21.1216C135.331 21.1216 134.142 19.9309 134.142 18.4623C134.142 16.9937 135.331 15.8037 136.797 15.8037C138.263 15.8037 139.451 16.9937 139.451 18.4623Z" fill="#31C9FF"/>
<path id="Fill 205" fill-rule="evenodd" clip-rule="evenodd" d="M132.975 24.3731C132.975 25.8418 131.787 27.0317 130.321 27.0317C128.855 27.0317 127.666 25.8418 127.666 24.3731C127.666 22.9045 128.855 21.7139 130.321 21.7139C131.787 21.7139 132.975 22.9045 132.975 24.3731Z" fill="#5822F3"/>
<path id="Fill 207" fill-rule="evenodd" clip-rule="evenodd" d="M156.758 92.9981C156.758 94.4668 155.57 95.6574 154.104 95.6574C152.638 95.6574 151.449 94.4668 151.449 92.9981C151.449 91.5295 152.638 90.3389 154.104 90.3389C155.57 90.3389 156.758 91.5295 156.758 92.9981Z" fill="#5822F3"/>
<path id="Fill 209" fill-rule="evenodd" clip-rule="evenodd" d="M154.385 83.8028C154.385 85.2715 153.196 86.4621 151.73 86.4621C150.264 86.4621 149.076 85.2715 149.076 83.8028C149.076 82.3342 150.264 81.1436 151.73 81.1436C153.196 81.1436 154.385 82.3342 154.385 83.8028Z" fill="#F22F29"/>
<path id="Fill 211" fill-rule="evenodd" clip-rule="evenodd" d="M138.478 68.6977C138.478 70.1663 137.29 71.3569 135.824 71.3569C134.358 71.3569 133.168 70.1663 133.168 68.6977C133.168 67.2297 134.358 66.0391 135.824 66.0391C137.29 66.0391 138.478 67.2297 138.478 68.6977Z" fill="#FFB700"/>
<path id="Fill 213" fill-rule="evenodd" clip-rule="evenodd" d="M148.3 51.9838C148.3 53.4524 147.111 54.6431 145.645 54.6431C144.179 54.6431 142.99 53.4524 142.99 51.9838C142.99 50.5152 144.179 49.3252 145.645 49.3252C147.111 49.3252 148.3 50.5152 148.3 51.9838Z" fill="#5822F3"/>
<path id="Fill 215" fill-rule="evenodd" clip-rule="evenodd" d="M131.07 50.0931C131.403 48.6625 132.831 47.7738 134.258 48.1071C135.687 48.4405 136.574 49.8704 136.241 51.3011C135.908 52.731 134.48 53.6203 133.053 53.287C131.625 52.953 130.737 51.5237 131.07 50.0931Z" fill="#5822F3"/>
<path id="Fill 217" fill-rule="evenodd" clip-rule="evenodd" d="M138.494 46.0609C138.826 44.6302 140.254 43.7416 141.681 44.0749C143.109 44.4082 143.997 45.8389 143.664 47.2688C143.331 48.6995 141.904 49.5881 140.476 49.2548C139.048 48.9215 138.16 47.4915 138.494 46.0609Z" fill="#31C9FF"/>
<path id="Fill 219" fill-rule="evenodd" clip-rule="evenodd" d="M87.603 51.1409C87.9357 49.7103 89.3638 48.8217 90.7912 49.155C92.2193 49.4883 93.1064 50.9183 92.7736 52.3489C92.4409 53.7789 91.0128 54.6682 89.5854 54.3342C88.1573 54.0009 87.2702 52.5716 87.603 51.1409Z" fill="#F84FAA"/>
<path id="Fill 221" fill-rule="evenodd" clip-rule="evenodd" d="M94.1263 46.597C94.4591 45.1664 95.8865 44.2777 97.3139 44.611C98.742 44.9444 99.6298 46.3743 99.297 47.805C98.9636 49.2349 97.5362 50.1242 96.1088 49.7902C94.6807 49.4569 93.7929 48.0276 94.1263 46.597Z" fill="#1CF160"/>
<path id="Fill 223" fill-rule="evenodd" clip-rule="evenodd" d="M118.327 24.4456C118.66 23.015 120.088 22.1263 121.515 22.4597C122.943 22.793 123.831 24.223 123.498 25.6536C123.165 27.0836 121.737 27.9729 120.309 27.6389C118.882 27.3056 117.994 25.8763 118.327 24.4456Z" fill="#1CF160"/>
<path id="Fill 225" fill-rule="evenodd" clip-rule="evenodd" d="M94.1263 54.9798C94.4591 53.5492 95.8865 52.6605 97.3139 52.9939C98.742 53.3272 99.6298 54.7571 99.297 56.1878C98.9636 57.6177 97.5362 58.507 96.1088 58.1731C94.6807 57.8397 93.7929 56.4104 94.1263 54.9798Z" fill="#FFF300"/>
<path id="Fill 227" fill-rule="evenodd" clip-rule="evenodd" d="M141.148 37.7454C141.482 36.3148 142.909 35.4262 144.337 35.7595C145.765 36.0928 146.653 37.5228 146.319 38.9534C145.986 40.3834 144.559 41.2727 143.131 40.9393C141.703 40.6054 140.816 39.1761 141.148 37.7454Z" fill="#1CF160"/>
<path id="Fill 229" fill-rule="evenodd" clip-rule="evenodd" d="M80.2977 56.4368C80.6304 55.0062 82.0585 54.1176 83.486 54.4509C84.9141 54.7842 85.8011 56.2142 85.4684 57.6448C85.1357 59.0748 83.7076 59.9641 82.2801 59.6301C80.852 59.2968 79.965 57.8675 80.2977 56.4368Z" fill="#31C9FF"/>
<path id="Fill 231" fill-rule="evenodd" clip-rule="evenodd" d="M85.7762 61.6712C86.1089 60.2406 87.537 59.3519 88.9644 59.6853C90.3925 60.0186 91.2796 61.4485 90.9469 62.8792C90.6141 64.3091 89.186 65.1985 87.7586 64.8651C86.3305 64.5311 85.4434 63.1018 85.7762 61.6712Z" fill="#FFB700"/>
<path id="Fill 233" fill-rule="evenodd" clip-rule="evenodd" d="M96.7811 39.1478C97.1138 37.7171 98.5412 36.8285 99.9687 37.1618C101.397 37.4951 102.284 38.9251 101.952 40.3557C101.618 41.7857 100.191 42.675 98.7635 42.3417C97.3354 42.0077 96.4477 40.5784 96.7811 39.1478Z" fill="#FFB700"/>
<path id="Fill 235" fill-rule="evenodd" clip-rule="evenodd" d="M102.872 55.4017C103.204 53.971 104.632 53.0824 106.059 53.4157C107.487 53.7491 108.375 55.179 108.042 56.6096C107.709 58.0396 106.282 58.9289 104.854 58.5949C103.426 58.2616 102.538 56.8323 102.872 55.4017Z" fill="#31C9FF"/>
<path id="Fill 237" fill-rule="evenodd" clip-rule="evenodd" d="M103.243 42.7083C103.576 41.2777 105.004 40.389 106.431 40.7224C107.859 41.0557 108.747 42.4863 108.414 43.9163C108.081 45.3469 106.653 46.2356 105.226 45.9022C103.798 45.5689 102.91 44.1389 103.243 42.7083Z" fill="#F84FAA"/>
<path id="Fill 239" fill-rule="evenodd" clip-rule="evenodd" d="M119.751 46.5648C120.085 45.1341 121.512 44.2455 122.94 44.5788C124.368 44.9121 125.255 46.3421 124.922 47.7727C124.589 49.2027 123.162 50.092 121.734 49.7587C120.306 49.4247 119.419 47.9954 119.751 46.5648Z" fill="#1CF160"/>
<path id="Fill 241" fill-rule="evenodd" clip-rule="evenodd" d="M109.034 61.0433C109.368 59.6126 110.795 58.724 112.223 59.0573C113.651 59.3907 114.538 60.8213 114.205 62.2512C113.872 63.6819 112.445 64.5705 111.017 64.2372C109.589 63.9039 108.702 62.4739 109.034 61.0433Z" fill="#F22F29"/>
<path id="Fill 243" fill-rule="evenodd" clip-rule="evenodd" d="M114.523 40.4046C114.856 38.974 116.284 38.0853 117.711 38.4187C119.14 38.752 120.027 40.1819 119.694 41.6126C119.361 43.0425 117.933 43.9319 116.506 43.5979C115.078 43.2645 114.19 41.8352 114.523 40.4046Z" fill="#31C9FF"/>
<path id="Fill 245" fill-rule="evenodd" clip-rule="evenodd" d="M115.573 54.5032C115.906 53.0726 117.334 52.184 118.762 52.5173C120.19 52.8506 121.077 54.2806 120.744 55.7112C120.411 57.1412 118.983 58.0305 117.556 57.6965C116.128 57.3632 115.241 55.9339 115.573 54.5032Z" fill="#FFF300"/>
<path id="Fill 247" fill-rule="evenodd" clip-rule="evenodd" d="M106.38 33.804C106.712 32.3734 108.14 31.4847 109.567 31.8181C110.995 32.1514 111.883 33.582 111.55 35.012C111.217 36.4426 109.79 37.3313 108.362 36.9979C106.934 36.6646 106.046 35.2347 106.38 33.804Z" fill="#5822F3"/>
<path id="Fill 249" fill-rule="evenodd" clip-rule="evenodd" d="M124.242 56.5286C124.575 55.098 126.003 54.2094 127.43 54.5427C128.858 54.876 129.745 56.3066 129.413 57.7366C129.08 59.1672 127.652 60.0559 126.224 59.7225C124.796 59.3892 123.909 57.9593 124.242 56.5286Z" fill="#F84FAA"/>
<path id="Fill 251" fill-rule="evenodd" clip-rule="evenodd" d="M123.805 37.0111C124.138 35.5804 125.565 34.6918 126.993 35.0251C128.421 35.3584 129.309 36.7884 128.975 38.219C128.643 39.649 127.215 40.5383 125.787 40.205C124.36 39.871 123.472 38.4417 123.805 37.0111Z" fill="#F84FAA"/>
<path id="Fill 253" fill-rule="evenodd" clip-rule="evenodd" d="M76.3862 63.3763C76.7189 61.9457 78.147 61.057 79.5744 61.3903C81.0025 61.7237 81.8896 63.1536 81.5569 64.5843C81.2241 66.0142 79.796 66.9035 78.3686 66.5695C76.9405 66.2362 76.0534 64.8069 76.3862 63.3763Z" fill="#5822F3"/>
<path id="Fill 255" fill-rule="evenodd" clip-rule="evenodd" d="M130.685 42.7083C131.018 41.2777 132.446 40.389 133.873 40.7224C135.301 41.0557 136.189 42.4863 135.855 43.9163C135.523 45.3469 134.095 46.2356 132.667 45.9022C131.24 45.5689 130.352 44.1389 130.685 42.7083Z" fill="#F22F29"/>
<path id="Fill 257" fill-rule="evenodd" clip-rule="evenodd" d="M107.863 48.721C108.195 47.2904 109.623 46.4017 111.051 46.7351C112.479 47.0684 113.366 48.4984 113.033 49.929C112.701 51.3589 111.273 52.2483 109.845 51.9149C108.417 51.5809 107.53 50.1516 107.863 48.721Z" fill="#FFB700"/>
<path id="Fill 259" fill-rule="evenodd" clip-rule="evenodd" d="M96.2936 64.1282C96.627 62.6976 98.0544 61.809 99.4819 62.1423C100.91 62.4756 101.798 63.9056 101.464 65.3362C101.132 66.7662 99.7041 67.6555 98.276 67.3222C96.8486 66.9882 95.9609 65.5589 96.2936 64.1282Z" fill="#5822F3"/>
<path id="Fill 261" fill-rule="evenodd" clip-rule="evenodd" d="M154.841 42.4112C154.841 43.8792 153.652 45.0698 152.186 45.0698C150.72 45.0698 149.531 43.8792 149.531 42.4112C149.531 40.9426 150.72 39.752 152.186 39.752C153.652 39.752 154.841 40.9426 154.841 42.4112Z" fill="#F84FAA"/>
<g id="Group 265">
<mask id="mask0" mask-type="alpha" maskUnits="userSpaceOnUse" x="0" y="272" width="17" height="36">
<path id="Clip 264" fill-rule="evenodd" clip-rule="evenodd" d="M0 272.354H16.1172V307.293H0V272.354Z" fill="white"/>
</mask>
<g mask="url(#mask0)">
<path id="Fill 263" fill-rule="evenodd" clip-rule="evenodd" d="M16.1172 303.218V307.293H12.66C9.81251 307.293 7.68501 306.614 6.27954 305.257C4.87275 303.898 4.16935 301.623 4.16935 298.43V283.355H-0.000473022V279.331H4.16935V272.354H8.84625V279.331H16.0666V283.355H8.84625V298.533C8.84625 300.333 9.17699 301.564 9.8378 302.225C10.4993 302.887 11.6425 303.218 13.2703 303.218H16.1172Z" fill="white"/>
</g>
</g>
<path id="Fill 266" fill-rule="evenodd" clip-rule="evenodd" d="M45.8592 282.004C47.8589 284.093 48.8591 287.106 48.8591 291.046V307.293H44.2328V291.453C44.2328 288.668 43.52 286.529 42.0979 285.035C40.6738 283.542 38.7413 282.794 36.3011 282.794C33.759 282.794 31.7253 283.617 30.2 285.265C28.6748 286.911 27.9122 289.314 27.9122 292.471V307.293H23.2852V269.602H27.9122V285.951C28.6242 283.677 29.8859 281.929 31.7007 280.705C33.5127 279.483 35.6063 278.872 37.9787 278.872C41.2328 278.872 43.8588 279.915 45.8592 282.004Z" fill="white"/>
<path id="Fill 268" fill-rule="evenodd" clip-rule="evenodd" d="M46.4011 373.192C50.2635 369.499 52.194 364.306 52.194 357.615C52.194 350.924 50.2635 345.733 46.4011 342.037C42.5401 338.345 37.1292 336.496 30.1737 336.496H21.7203V378.734H30.1737C37.1292 378.734 42.5401 376.887 46.4011 373.192ZM65.6039 376.903C62.5074 382.515 58.0541 386.889 52.2459 390.024C46.4364 393.161 39.6 394.729 31.7395 394.729H3.87442V320.814H31.7395C39.6706 320.814 46.5222 322.348 52.2978 325.416C58.0714 328.482 62.5074 332.803 65.6039 338.378C68.699 343.955 70.2482 350.366 70.2482 357.615C70.2482 364.865 68.699 371.294 65.6039 376.903Z" fill="white"/>
<path id="Fill 270" fill-rule="evenodd" clip-rule="evenodd" d="M101.187 341.985C97.7434 345.785 96.0219 350.96 96.0219 357.511C96.0219 363.993 97.7434 369.151 101.187 372.983C104.632 376.817 109.275 378.734 115.12 378.734C120.893 378.734 125.519 376.817 129 372.983C132.478 369.151 134.218 363.993 134.218 357.511C134.218 351.029 132.496 345.871 129.052 342.037C125.608 338.206 120.964 336.287 115.12 336.287C109.275 336.287 104.632 338.188 101.187 341.985ZM134.061 324.527C139.731 327.768 144.2 332.263 147.472 338.014C150.741 343.763 152.376 350.263 152.376 357.511C152.376 364.76 150.723 371.277 147.419 377.061C144.115 382.847 139.627 387.359 133.957 390.6C128.285 393.84 122.007 395.461 115.12 395.461C108.232 395.461 101.953 393.84 96.2821 390.6C90.6109 387.359 86.1237 382.847 82.8196 377.061C79.5149 371.277 77.8626 364.76 77.8626 357.511C77.8626 350.263 79.5149 343.763 82.8196 338.014C86.1237 332.263 90.6109 327.768 96.2821 324.527C101.953 321.286 108.232 319.666 115.12 319.666C122.076 319.666 128.39 321.286 134.061 324.527Z" fill="white"/>
<g id="Group 274">
<mask id="mask1" mask-type="alpha" maskUnits="userSpaceOnUse" x="162" y="317" width="66" height="81">
<path id="Clip 273" fill-rule="evenodd" clip-rule="evenodd" d="M162.078 317.77H227.616V397.774H162.078V317.77Z" fill="white"/>
</mask>
<g mask="url(#mask1)">
<path id="Fill 272" fill-rule="evenodd" clip-rule="evenodd" d="M227.616 397.774L179.924 356.968V394.73H162.078V317.77L209.771 358.994V320.815H227.616V397.774Z" fill="white"/>
</g>
</g>
<path id="Fill 275" fill-rule="evenodd" clip-rule="evenodd" d="M258.087 320.814V363.469C258.087 368.35 259.183 372.078 261.374 374.656C263.566 377.235 266.75 378.524 270.924 378.524C275.098 378.524 278.281 377.235 280.473 374.656C282.664 372.078 283.76 368.35 283.76 363.469V320.814H301.606V363.469C301.606 370.439 300.249 376.313 297.536 381.085C294.823 385.86 291.117 389.45 286.421 391.855C281.726 394.259 276.419 395.461 270.506 395.461C264.591 395.461 259.374 394.277 254.852 391.907C250.329 389.538 246.78 385.947 244.208 381.138C241.632 376.33 240.346 370.439 240.346 363.469V320.814H258.087Z" fill="white"/>
<path id="Fill 277" fill-rule="evenodd" clip-rule="evenodd" d="M369.648 320.814V335.034H349.611V394.729H331.661V335.034H311.832V320.814H369.648Z" fill="white"/>
<path id="Fill 279" fill-rule="evenodd" clip-rule="evenodd" d="M89.819 80.1518C89.819 81.6204 88.6305 82.811 87.1645 82.811C85.6985 82.811 84.5093 81.6204 84.5093 80.1518C84.5093 78.6831 85.6985 77.4932 87.1645 77.4932C88.6305 77.4932 89.819 78.6831 89.819 80.1518Z" fill="#F22F29"/>
<path id="Fill 281" fill-rule="evenodd" clip-rule="evenodd" d="M104.324 101.299C104.324 102.768 103.136 103.958 101.67 103.958C100.204 103.958 99.0143 102.768 99.0143 101.299C99.0143 99.8303 100.204 98.6396 101.67 98.6396C103.136 98.6396 104.324 99.8303 104.324 101.299Z" fill="#F84FAA"/>
<path id="Fill 283" fill-rule="evenodd" clip-rule="evenodd" d="M217.956 218.079C215.322 218.079 213.187 215.94 213.187 213.301C213.187 210.663 215.322 208.523 217.956 208.523C220.59 208.523 222.725 210.663 222.725 213.301C222.725 215.94 220.59 218.079 217.956 218.079Z" fill="#B88980"/>
<path id="Fill 285" fill-rule="evenodd" clip-rule="evenodd" d="M295.342 196.925C293.729 196.925 292.422 195.615 292.422 194C292.422 192.384 293.729 191.075 295.342 191.075C296.954 191.075 298.262 192.384 298.262 194C298.262 195.615 296.954 196.925 295.342 196.925Z" fill="#B88980"/>
<path id="Fill 287" fill-rule="evenodd" clip-rule="evenodd" d="M264.429 183.664C262.816 183.664 261.509 182.354 261.509 180.739C261.509 179.124 262.816 177.814 264.429 177.814C266.042 177.814 267.35 179.124 267.35 180.739C267.35 182.354 266.042 183.664 264.429 183.664Z" fill="#B88980"/>
<path id="Fill 289" fill-rule="evenodd" clip-rule="evenodd" d="M246.598 153.925C244.985 153.925 243.678 152.616 243.678 151C243.678 149.384 244.985 148.075 246.598 148.075C248.211 148.075 249.518 149.384 249.518 151C249.518 152.616 248.211 153.925 246.598 153.925Z" fill="#B88980"/>
<path id="Fill 291" fill-rule="evenodd" clip-rule="evenodd" d="M204.107 203.754C201.803 203.754 199.935 201.882 199.935 199.574C199.935 197.267 201.803 195.396 204.107 195.396C206.411 195.396 208.279 197.267 208.279 199.574C208.279 201.882 206.411 203.754 204.107 203.754Z" fill="#B88980"/>
<path id="Fill 293" fill-rule="evenodd" clip-rule="evenodd" d="M284.416 162.929C282.932 162.929 281.73 161.724 281.73 160.238C281.73 158.752 282.932 157.548 284.416 157.548C285.899 157.548 287.102 158.752 287.102 160.238C287.102 161.724 285.899 162.929 284.416 162.929Z" fill="#B88980"/>
<path id="Fill 295" fill-rule="evenodd" clip-rule="evenodd" d="M231.657 245.466C229.983 245.466 228.625 244.106 228.625 242.429C228.625 240.753 229.983 239.393 231.657 239.393C233.332 239.393 234.688 240.753 234.688 242.429C234.688 244.106 233.332 245.466 231.657 245.466Z" fill="#B88980"/>
<path id="Fill 297" fill-rule="evenodd" clip-rule="evenodd" d="M213.187 262.211C211.574 262.211 210.266 260.901 210.266 259.286C210.266 257.67 211.574 256.361 213.187 256.361C214.8 256.361 216.107 257.67 216.107 259.286C216.107 260.901 214.8 262.211 213.187 262.211Z" fill="#B88980"/>
<path id="Fill 299" fill-rule="evenodd" clip-rule="evenodd" d="M236.079 196.925C234.466 196.925 233.159 195.615 233.159 194C233.159 192.384 234.466 191.075 236.079 191.075C237.692 191.075 238.999 192.384 238.999 194C238.999 195.615 237.692 196.925 236.079 196.925Z" fill="#B88980"/>
<path id="Fill 301" fill-rule="evenodd" clip-rule="evenodd" d="M266.607 211.48C263.973 211.48 261.838 209.342 261.838 206.703C261.838 204.064 263.973 201.926 266.607 201.926C269.241 201.926 271.377 204.064 271.377 206.703C271.377 209.342 269.241 211.48 266.607 211.48Z" fill="#B88980"/>
<path id="Fill 303" fill-rule="evenodd" clip-rule="evenodd" d="M243.688 175.048C243.109 175.048 242.53 174.83 242.082 174.393C241.175 173.505 241.158 172.047 242.045 171.138C244.919 168.193 249.158 166.094 254.305 165.071C255.554 164.827 256.76 165.634 257.007 166.88C257.253 168.127 256.445 169.338 255.201 169.586C251.026 170.416 247.522 172.109 245.332 174.355C244.881 174.816 244.285 175.048 243.688 175.048Z" fill="#B88980"/>
<path id="Fill 305" fill-rule="evenodd" clip-rule="evenodd" d="M255.778 239.374C254.542 239.374 253.521 238.389 253.483 237.144C253.384 233.969 252.031 230.377 249.671 227.032C248.94 225.994 249.186 224.557 250.222 223.824C251.26 223.091 252.691 223.338 253.425 224.375C256.339 228.509 257.947 232.875 258.075 237C258.114 238.272 257.118 239.333 255.85 239.372C255.826 239.374 255.802 239.374 255.778 239.374Z" fill="#B88980"/>
<path id="Fill 307" fill-rule="evenodd" clip-rule="evenodd" d="M304.372 164.452C303.118 164.452 302.094 163.443 302.075 162.183C302.029 159.01 300.741 155.407 298.446 152.036C297.731 150.986 298.001 149.554 299.049 148.838C300.096 148.124 301.528 148.392 302.242 149.442C305.079 153.61 306.61 157.993 306.67 162.117C306.688 163.388 305.674 164.433 304.406 164.452H304.372Z" fill="#B88980"/>
<path id="Fill 309" fill-rule="evenodd" clip-rule="evenodd" d="M207.908 235.158C207.665 235.158 207.417 235.119 207.174 235.037C202.627 233.502 198.586 230.069 196.086 225.619C195.465 224.512 195.857 223.109 196.963 222.485C198.068 221.864 199.468 222.253 200.091 223.363C202.041 226.834 205.157 229.499 208.641 230.674C209.844 231.081 210.49 232.386 210.084 233.591C209.761 234.551 208.866 235.158 207.908 235.158Z" fill="#B88980"/>
<path id="Fill 311" fill-rule="evenodd" clip-rule="evenodd" d="M62.0831 285.112C63.8114 283.533 65.9468 282.743 68.4889 282.743C70.0821 282.743 71.5554 283.083 72.9116 283.762C74.2679 284.441 75.3353 285.478 76.1152 286.869C76.7866 288.069 77.1314 289.665 77.1493 291.368H59.3321C59.571 288.653 60.4887 286.569 62.0831 285.112ZM76.5338 298.141C76.1252 299.792 75.2654 301.148 73.9038 302.175C72.3946 303.312 70.5233 303.88 68.286 303.88C65.8111 303.88 63.7175 303.083 62.0066 301.486C60.2944 299.892 59.388 297.498 59.2862 294.305H81.6066C81.7417 293.593 81.8103 292.744 81.8103 291.759C81.8103 289.415 81.2759 287.277 80.2078 285.341C79.1404 283.405 77.5972 281.861 75.5815 280.706C73.5645 279.552 71.2 278.976 68.4889 278.976C65.8111 278.976 63.4374 279.552 61.3711 280.706C59.3028 281.861 57.6851 283.525 56.5152 285.697C55.3459 287.871 54.761 290.417 54.761 293.337C54.761 296.258 55.3459 298.796 56.5152 300.952C57.6851 303.108 59.3028 304.764 61.3711 305.918C63.4374 307.073 65.8111 307.65 68.4889 307.65C70.8281 307.65 72.9289 307.225 74.7929 306.376C76.6562 305.529 78.1741 304.34 79.3434 302.812C80.4041 301.425 81.1049 299.862 81.4829 298.141H76.5338Z" fill="white"/>
<path id="Fill 313" fill-rule="evenodd" clip-rule="evenodd" d="M238.72 17.9551C238.844 18.2398 251.138 46.7211 248.524 76.1803C245.872 106.07 238.956 133.998 238.886 134.276C238.579 135.509 239.327 136.759 240.558 137.067C240.745 137.114 240.932 137.137 241.117 137.137C242.146 137.137 243.083 136.439 243.344 135.393C243.414 135.111 250.416 106.849 253.101 76.5883C255.439 50.233 246.64 25.4129 243.782 18.1844C242.149 17.3845 240.503 16.6132 238.84 15.8818C238.488 16.4952 238.415 17.2578 238.72 17.9551Z" fill="#6C3C31"/>
<path id="Fill 315" fill-rule="evenodd" clip-rule="evenodd" d="M263.513 79.5855C264.259 85.5207 265.029 91.6572 265.505 98.0577C267.437 124.018 261.289 144.015 261.226 144.215C260.846 145.427 261.519 146.718 262.729 147.099C262.958 147.172 263.19 147.206 263.419 147.206C264.394 147.206 265.3 146.578 265.609 145.596C265.874 144.751 272.088 124.605 270.087 97.7164C269.602 91.1985 268.824 85.0027 268.072 79.0115C265.762 60.6267 263.938 46.1044 272.259 37.2119C272.296 37.1726 272.323 37.1266 272.357 37.0846C271.197 36.0833 270.017 35.1106 268.829 34.1533C259.124 44.6251 261.157 60.8286 263.513 79.5855Z" fill="#6C3C31"/>
<path id="Fill 317" fill-rule="evenodd" clip-rule="evenodd" d="M277.95 42.1865C278.097 42.5118 292.887 79.5096 275.896 143.435C275.57 144.664 276.299 145.924 277.525 146.251C277.722 146.305 277.922 146.329 278.118 146.329C279.133 146.329 280.062 145.649 280.336 144.619C294.484 91.3933 287.502 59.3494 284.05 48.4637C282.676 46.9571 281.267 45.4744 279.817 44.0218C279.595 43.7991 279.314 43.5192 279.089 43.2978C278.634 42.8392 277.95 42.1865 277.95 42.1865Z" fill="#6C3C31"/>
<path id="Fill 319" fill-rule="evenodd" clip-rule="evenodd" d="M295.686 112.727C295.828 124.749 297.761 135.734 297.843 136.195C298.041 137.31 299.01 138.093 300.102 138.093C300.235 138.093 300.371 138.081 300.508 138.057C301.757 137.834 302.589 136.639 302.366 135.387C302.347 135.278 300.418 124.318 300.28 112.672C300.109 98.1943 302.799 88.9346 307.855 86.5966C308.06 86.502 308.236 86.374 308.397 86.232C307.824 84.89 307.233 83.556 306.615 82.2334C306.384 82.2614 306.153 82.3147 305.931 82.4174C298.933 85.6526 295.487 95.8504 295.686 112.727Z" fill="#6C3C31"/>
<path id="Fill 321" fill-rule="evenodd" clip-rule="evenodd" d="M198.759 43.1147C197.932 48.9599 196.987 54.3911 196.074 59.6436C194.018 71.4753 192.23 81.7804 193.226 89.8409C194.84 90.1155 196.428 90.4655 197.986 90.8915C197.988 90.7528 197.981 90.6135 197.957 90.4722C196.679 83.003 198.496 72.5446 200.601 60.4336C201.52 55.1457 202.47 49.6779 203.307 43.7607C205.877 25.5931 198.9 9.31488 196.915 5.14899C195.326 5.00766 193.732 4.891 192.132 4.80566C192.044 5.29365 192.102 5.81164 192.35 6.28429C192.442 6.45896 201.473 23.9298 198.759 43.1147Z" fill="#6C3C31"/>
<path id="Fill 323" fill-rule="evenodd" clip-rule="evenodd" d="M219.348 75.7556C219.029 88.306 215.591 96.1591 214.264 98.741C215.525 99.6637 216.739 100.645 217.905 101.679C219.095 99.5983 223.562 90.8286 223.942 75.8729C224.187 66.2478 222.601 58.0487 221.203 50.8149C219.896 44.0531 218.662 37.6672 219.07 31.1087C219.884 18.0757 225.094 11.9099 225.138 11.8586C225.389 11.5746 225.547 11.2432 225.635 10.8986C224.138 10.4226 222.634 9.9666 221.12 9.54395C219.544 11.6846 215.249 18.5611 214.485 30.8227C214.04 37.9659 215.328 44.6317 216.693 51.6895C218.112 59.036 219.581 66.6318 219.348 75.7556Z" fill="#6C3C31"/>
</g>
</svg>
